<svg width="900" height="310" viewBox="90 40 910 320" xmlns="http://www.w3.org/2000/svg" role="img" aria-labelledby="title">
  <title id="title">Pearl Source Hub</title>
  <defs>
    <linearGradient id="pearlGrad" x1="0" y1="0" x2="1" y2="1">
      <stop offset="0%" stop-color="#ffffff"/>
      <stop offset="42%" stop-color="#f4e8d5"/>
      <stop offset="72%" stop-color="#d4b98d"/>
      <stop offset="100%" stop-color="#fff7ea"/>
    </linearGradient>
    <linearGradient id="orangeGrad" x1="0" y1="0" x2="1" y2="0">
      <stop offset="0%" stop-color="#f59a18"/>
      <stop offset="100%" stop-color="#d97706"/>
    </linearGradient>
    <filter id="softShadow" x="-20%" y="-20%" width="140%" height="140%">
      <feDropShadow dx="0" dy="8" stdDeviation="8" flood-color="#0b2f4f" flood-opacity="0.10"/>
    </filter>
  </defs>

  <!-- Icon group -->
  <g transform="translate(105 58)" filter="url(#softShadow)">
    <path d="M70 152 C70 64 142 10 225 20 C285 27 335 68 357 124" fill="none" stroke="#0b3557" stroke-width="10" stroke-linecap="round"/>
    <path d="M92 110 C150 48 242 45 320 88" fill="none" stroke="#0b3557" stroke-width="4" stroke-linecap="round" opacity=".92"/>
    <path d="M132 32 C196 86 228 159 225 252" fill="none" stroke="#0b3557" stroke-width="4" stroke-linecap="round" opacity=".92"/>
    <path d="M221 22 C187 78 166 145 158 232" fill="none" stroke="#0b3557" stroke-width="4" stroke-linecap="round" opacity=".92"/>
    <path d="M78 159 C144 134 221 121 334 136" fill="none" stroke="#0b3557" stroke-width="4" stroke-linecap="round" opacity=".78"/>
    <path d="M73 153 L150 107 L232 132 L304 72" fill="none" stroke="#ed8b00" stroke-width="7" stroke-linecap="round" stroke-linejoin="round"/>
    <circle cx="73" cy="153" r="14" fill="#ed8b00"/>
    <circle cx="150" cy="107" r="14" fill="#ed8b00"/>
    <circle cx="232" cy="132" r="14" fill="#ed8b00"/>
    <circle cx="304" cy="72" r="14" fill="#ed8b00"/>
    <circle cx="208" cy="187" r="62" fill="url(#pearlGrad)" stroke="#fffaf0" stroke-width="6"/>
    <circle cx="184" cy="160" r="17" fill="#ffffff" opacity="0.55"/>
    <path d="M84 248 C120 278 233 286 316 256 L358 216 C286 229 188 226 94 208 C86 220 82 235 84 248 Z" fill="#0b3557"/>
    <path d="M106 236 C158 250 236 254 306 239" fill="none" stroke="#fff8ea" stroke-width="8" stroke-linecap="round" opacity=".92"/>
    <rect x="118" y="187" width="35" height="32" rx="2" fill="#0b3557"/>
    <rect x="158" y="174" width="44" height="45" rx="2" fill="#ed8b00"/>
    <rect x="206" y="182" width="50" height="37" rx="2" fill="#f59a18"/>
    <path d="M156 174 L180 160 L258 182" fill="none" stroke="#fff8ea" stroke-width="5" stroke-linecap="round" stroke-linejoin="round"/>
    <path d="M62 277 C158 326 306 317 391 197" fill="none" stroke="url(#orangeGrad)" stroke-width="14" stroke-linecap="round"/>
    <path d="M379 181 C392 192 402 209 407 224" fill="none" stroke="#ed8b00" stroke-width="10" stroke-linecap="round"/>
  </g>

  <!-- Wordmark -->
  <g transform="translate(520 96)">
    <text x="0" y="72" font-family="Inter, Montserrat, Arial, sans-serif" font-size="96" font-weight="800" letter-spacing="-2" fill="#0b3557">Pearl</text>
    <text x="0" y="162" font-family="Inter, Montserrat, Arial, sans-serif" font-size="96" font-weight="800" letter-spacing="-2" fill="#ed8b00">Source</text>
    <line x1="3" y1="220" x2="130" y2="220" stroke="#ed8b00" stroke-width="5" stroke-linecap="round"/>
    <text x="160" y="238" font-family="Inter, Montserrat, Arial, sans-serif" font-size="72" font-weight="760" fill="#0b3557">Hub</text>
    <line x1="340" y1="220" x2="467" y2="220" stroke="#ed8b00" stroke-width="5" stroke-linecap="round"/>
  </g>
</svg>
